<svg width="84" height="17" viewBox="0 0 84 17" fill="none" xmlns="http://www.w3.org/2000/svg">
<path d="M83.75 8.5C83.75 8.99699 83.5023 9.50978 82.9709 10.0353C82.439 10.5613 81.6413 11.0808 80.5915 11.5831C78.4932 12.5871 75.4408 13.498 71.6489 14.2654C64.0691 15.7994 53.5865 16.75 42 16.75C30.4135 16.75 19.9309 15.7994 12.3511 14.2654C8.55916 13.498 5.5068 12.5871 3.40847 11.5831C2.35872 11.0808 1.56099 10.5613 1.02909 10.0353C0.497735 9.50978 0.25 8.99699 0.25 8.5C0.25 8.00301 0.497735 7.49022 1.02909 6.9647C1.56099 6.43865 2.35872 5.91922 3.40847 5.41693C5.5068 4.41292 8.55916 3.50204 12.3511 2.73462C19.9309 1.20062 30.4135 0.25 42 0.25C53.5865 0.25 64.0691 1.20062 71.6489 2.73462C75.4408 3.50204 78.4932 4.41292 80.5915 5.41693C81.6413 5.91922 82.439 6.43865 82.9709 6.9647C83.5023 7.49022 83.75 8.00301 83.75 8.5Z" stroke="#9EA0A0" stroke-width="0.5"/>
</svg>
