<svg width="262" height="55" viewBox="0 0 262 55" fill="none" xmlns="http://www.w3.org/2000/svg">
<path d="M261.75 25.6667C261.75 27.3479 260.881 29.0756 259.16 30.8215C257.441 32.5664 254.893 34.3071 251.591 36.008C244.988 39.4091 235.418 42.6271 223.574 45.4057C199.89 50.9619 167.159 54.75 131 54.75C94.8408 54.75 62.1104 50.9619 38.4261 45.4057C26.5822 42.6271 17.0122 39.4091 10.4091 36.008C7.10693 34.3071 4.55881 32.5664 2.83954 30.8215C1.11937 29.0756 0.25 27.3479 0.25 25.6667C0.25 23.9876 1.11733 22.3185 2.83435 20.6745C4.55154 19.0303 7.09778 17.4324 10.3997 15.9029C17.0022 12.8444 26.5719 10.0837 38.4171 7.76293C62.1033 3.12212 94.8364 0.25 131 0.25C167.164 0.25 199.897 3.12212 223.583 7.76293C235.428 10.0837 244.998 12.8444 251.6 15.9029C254.902 17.4324 257.448 19.0303 259.166 20.6745C260.883 22.3185 261.75 23.9876 261.75 25.6667Z" stroke="#9EA0A0" stroke-width="0.5"/>
</svg>
