<svg width="42" height="7" viewBox="0 0 42 7" fill="none" xmlns="http://www.w3.org/2000/svg">
<path d="M41.75 3.5C41.75 3.63244 41.6698 3.80443 41.4155 4.01153C41.1643 4.2161 40.7786 4.42463 40.2581 4.62976C39.2194 5.03905 37.7016 5.4127 35.8081 5.72828C32.0252 6.35877 26.7896 6.75 21 6.75C15.2104 6.75 9.9748 6.35877 6.19186 5.72828C4.29838 5.4127 2.78062 5.03905 1.74194 4.62976C1.22135 4.42463 0.835688 4.2161 0.584525 4.01153C0.330251 3.80443 0.25 3.63244 0.25 3.5C0.25 3.36756 0.330251 3.19557 0.584525 2.98847C0.835688 2.7839 1.22135 2.57537 1.74194 2.37024C2.78062 1.96095 4.29838 1.5873 6.19186 1.27172C9.9748 0.641234 15.2104 0.25 21 0.25C26.7896 0.25 32.0252 0.641234 35.8081 1.27172C37.7016 1.5873 39.2194 1.96095 40.2581 2.37024C40.7786 2.57537 41.1643 2.7839 41.4155 2.98847C41.6698 3.19557 41.75 3.36756 41.75 3.5Z" stroke="#9EA0A0" stroke-width="0.5"/>
</svg>
