<svg width="91" height="185" viewBox="0 0 91 185" fill="none" xmlns="http://www.w3.org/2000/svg">
<path d="M42.5754 184C39.8289 171.254 39.6458 135.928 42.5754 136.657M42.5754 136.657C46.2373 137.567 89.2652 112.985 85.6033 103.881C90.1807 95.0796 95.1243 72.7433 78.2794 53.806L72.7864 61.0896C73.3968 52.592 66.5611 28.6776 34.336 1C33.7257 13.7463 29.0262 43.609 15.1107 61.0896C1.19535 78.5702 0.157794 96.9005 1.37844 103.881C2.97059 112.985 14.0122 124.275 42.5754 136.657ZM42.5754 136.657C32.2001 128.159 17.3085 105.155 40.745 81.1194C51.4253 89.01 66.7437 111.164 42.5754 136.657ZM42.5754 136.657C44.7117 126.945 47.3365 107.522 40.745 107.522M42.5754 136.657C33.0031 131.498 14.4754 114.442 16.9423 87.4925C18.1092 74.7463 27.9271 61.6358 42.5754 49.2537C52.0356 57.4478 66.9009 74.9397 69.1251 87.4925C70.577 95.6866 73.7013 101.149 42.5754 136.657Z" stroke="#9EA0A0" stroke-width="0.5"/>
</svg>
