<svg width="290" height="67" viewBox="0 0 290 67" fill="none" xmlns="http://www.w3.org/2000/svg">
<path d="M289.75 31.6892C289.75 33.7954 288.774 35.9311 286.868 38.0647C284.961 40.1987 282.138 42.3142 278.483 44.3721C271.172 48.4875 260.579 52.3478 247.469 55.6653C221.253 62.2993 185.024 66.75 145 66.75C104.976 66.75 68.7468 62.2993 42.5308 55.6653C29.4211 52.3478 18.8276 48.4875 11.5175 44.3721C7.86211 42.3142 5.0389 40.1987 3.13232 38.0647C1.22605 35.9311 0.25 33.7954 0.25 31.6892C0.25 29.5844 1.22477 27.5066 3.12838 25.4736C5.03313 23.4393 7.8546 21.465 11.5096 19.5764C18.8189 15.7997 29.412 12.3911 42.5229 9.52578C68.7405 3.79602 104.972 0.25 145 0.25C185.028 0.25 221.259 3.79602 247.477 9.52578C260.588 12.3911 271.181 15.7997 278.49 19.5764C282.145 21.465 284.967 23.4393 286.872 25.4736C288.775 27.5066 289.75 29.5844 289.75 31.6892Z" stroke="#9EA0A0" stroke-width="0.5"/>
</svg>
